<?xml version="1.0" encoding="utf-8"?>
<svg version="1.1" x="0px" y="0px" viewBox="0 0 64 80" style="enable-background:new 0 0 64 64;" xmlns="http://www.w3.org/2000/svg">
  <g>
    <g>
      <path d="M60,4H4C1.794,4,0,5.794,0,8v12c0,1.2,0.542,2.266,1.382,3C0.542,23.734,0,24.8,0,26v12c0,1.2,0.542,2.266,1.382,3    C0.542,41.734,0,42.8,0,44v12c0,2.206,1.794,4,4,4h56c2.206,0,4-1.794,4-4V44c0-1.2-0.542-2.266-1.382-3    C63.458,40.266,64,39.2,64,38V26c0-1.2-0.542-2.266-1.382-3C63.458,22.266,64,21.2,64,20V8C64,5.794,62.206,4,60,4z M4,6h56    c1.102,0,2,0.897,2,2v10H2V8C2,6.897,2.897,6,4,6z M60,58H4c-1.103,0-2-0.897-2-2h60C62,57.103,61.102,58,60,58z M62,44v10H2V44    c0-1.103,0.897-2,2-2h56C61.102,42,62,42.897,62,44z M4,40c-1.103,0-2-0.897-2-2h60c0,1.103-0.898,2-2,2H4z M62,26v10H2V26    c0-1.103,0.897-2,2-2h56C61.102,24,62,24.897,62,26z M4,22c-1.103,0-2-0.897-2-2h60c0,1.103-0.898,2-2,2H4z"/>
      <path d="M55,15c1.654,0,3-1.346,3-3s-1.346-3-3-3c-1.654,0-3,1.346-3,3S53.346,15,55,15z M55,11c0.552,0,1,0.449,1,1s-0.448,1-1,1    c-0.552,0-1-0.449-1-1S54.448,11,55,11z"/>
      <path d="M47,15c1.654,0,3-1.346,3-3s-1.346-3-3-3c-1.654,0-3,1.346-3,3S45.346,15,47,15z M47,11c0.552,0,1,0.449,1,1s-0.448,1-1,1    c-0.552,0-1-0.449-1-1S46.448,11,47,11z"/>
      <path d="M7,13h32c0.553,0,1-0.448,1-1s-0.447-1-1-1H7c-0.553,0-1,0.448-1,1S6.447,13,7,13z"/>
      <path d="M55,33c1.654,0,3-1.346,3-3s-1.346-3-3-3c-1.654,0-3,1.346-3,3S53.346,33,55,33z M55,29c0.552,0,1,0.449,1,1s-0.448,1-1,1    c-0.552,0-1-0.449-1-1S54.448,29,55,29z"/>
      <path d="M47,33c1.654,0,3-1.346,3-3s-1.346-3-3-3c-1.654,0-3,1.346-3,3S45.346,33,47,33z M47,29c0.552,0,1,0.449,1,1s-0.448,1-1,1    c-0.552,0-1-0.449-1-1S46.448,29,47,29z"/>
      <path d="M7,31h32c0.553,0,1-0.448,1-1s-0.447-1-1-1H7c-0.553,0-1,0.448-1,1S6.447,31,7,31z"/>
      <path d="M55,51c1.654,0,3-1.346,3-3s-1.346-3-3-3c-1.654,0-3,1.346-3,3S53.346,51,55,51z M55,47c0.552,0,1,0.449,1,1s-0.448,1-1,1    c-0.552,0-1-0.449-1-1S54.448,47,55,47z"/>
      <path d="M47,51c1.654,0,3-1.346,3-3s-1.346-3-3-3c-1.654,0-3,1.346-3,3S45.346,51,47,51z M47,47c0.552,0,1,0.449,1,1s-0.448,1-1,1    c-0.552,0-1-0.449-1-1S46.448,47,47,47z"/>
      <path d="M7,49h32c0.553,0,1-0.448,1-1s-0.447-1-1-1H7c-0.553,0-1,0.448-1,1S6.447,49,7,49z"/>
    </g>
  </g>
</svg>